STARTFONT 2.1
FONT big5.5a00.16
SIZE 16 72 72
FONTBOUNDINGBOX 16 16 0 -2
STARTPROPERTIES 4
FONT_DESCENT 2
FONT_ASCENT 14
DEFAULT_CHAR 0
COPYRIGHT "Copyright (c) 1992 AT&T - All rights reserved."
ENDPROPERTIES
CHARS 329
STARTCHAR ch-0
ENCODING 0
SWIDTH 1000 0
DWIDTH 16 0
BBX 16 16 0 -2
BITMAP
2006
2005
29ff
2804
7c04
2844
29f4
2845
2846
2844
288d
1103
2801
4401
0000
0000
ENDCHAR
STARTCHAR ch-1
ENCODING 1
SWIDTH 1000 0
DWIDTH 16 0
BBX 16 16 0 -2
BITMAP
0048
0044
3ffe
2040
3fc0
2222
3fe4
24a4
2898
2510
2230
2549
4885
0103
0000
0000
ENDCHAR
STARTCHAR ch-3
ENCODING 3
SWIDTH 1000 0
DWIDTH 16 0
BBX 16 16 0 -2
BITMAP
0810
0810
08fe
7e10
1210
1212
13ff
1210
2210
14fe
0810
1410
2212
43ff
0000
0000
ENDCHAR
STARTCHAR ch-9
ENCODING 9
SWIDTH 1000 0
DWIDTH 16 0
BBX 16 16 0 -2
BITMAP
2010
20fe
2492
7efe
2492
24fe
2400
25ff
2440
2440
187e
1802
2424
4218
0000
0000
ENDCHAR
STARTCHAR ch-10
ENCODING 10
SWIDTH 1000 0
DWIDTH 16 0
BBX 16 16 0 -2
BITMAP
203e
2022
2222
223e
7f22
223e
2222
2222
223e
2214
1414
0814
1425
6347
0000
0000
ENDCHAR
STARTCHAR ch-12
ENCODING 12
SWIDTH 1000 0
DWIDTH 16 0
BBX 16 16 0 -2
BITMAP
0802
08ff
0892
7e92
12fe
1292
1292
22fe
2210
1410
08fe
1410
2210
43ff
0000
0000
ENDCHAR
STARTCHAR ch-15
ENCODING 15
SWIDTH 1000 0
DWIDTH 16 0
BBX 16 16 0 -2
BITMAP
20a1
20a1
2882
29f4
7c81
28a2
28a4
28a1
28a2
28a4
10a9
2921
4421
021f
0000
0000
ENDCHAR
STARTCHAR ch-17
ENCODING 17
SWIDTH 1000 0
DWIDTH 16 0
BBX 16 16 0 -2
BITMAP
0420
20a8
12a6
04a2
3928
0870
0b80
0082
7fff
0210
0320
00c0
0338
1c0c
0000
0000
ENDCHAR
STARTCHAR ch-19
ENCODING 19
SWIDTH 1000 0
DWIDTH 16 0
BBX 16 16 0 -2
BITMAP
0802
08ff
0882
7efe
1286
12f8
1290
22fe
1490
08ff
1490
2291
4111
020f
0000
0000
ENDCHAR
STARTCHAR ch-21
ENCODING 21
SWIDTH 1000 0
DWIDTH 16 0
BBX 16 16 0 -2
BITMAP
2010
21ff
2810
7cfe
2892
2892
28fe
2810
2838
2854
1092
2911
4410
0210
0000
0000
ENDCHAR
STARTCHAR ch-22
ENCODING 22
SWIDTH 1000 0
DWIDTH 16 0
BBX 16 16 0 -2
BITMAP
0000
20fe
2082
2482
2482
7efe
2410
2490
249e
2490
2490
14d0
0930
741f
0000
0000
ENDCHAR
STARTCHAR ch-23
ENCODING 23
SWIDTH 1000 0
DWIDTH 16 0
BBX 16 16 0 -2
BITMAP
2001
21de
2844
7c84
2904
289f
2844
2844
2844
2944
109f
2940
4620
001f
0000
0000
ENDCHAR
STARTCHAR ch-24
ENCODING 24
SWIDTH 1000 0
DWIDTH 16 0
BBX 16 16 0 -2
BITMAP
0810
08fc
7e84
12fc
1284
1284
12fc
24a2
14a4
0898
1488
22a7
42c2
0080
0000
0000
ENDCHAR
STARTCHAR ch-25
ENCODING 25
SWIDTH 1000 0
DWIDTH 16 0
BBX 16 16 0 -2
BITMAP
2002
21ff
2449
2492
2524
7e92
2449
2400
24fe
2410
1410
0810
1410
63ff
0000
0000
ENDCHAR
STARTCHAR ch-27
ENCODING 27
SWIDTH 1000 0
DWIDTH 16 0
BBX 16 16 0 -2
BITMAP
207e
2042
2442
7e7e
2480
2480
24fe
2412
2412
25ff
1818
1824
2442
4281
0000
0000
ENDCHAR
STARTCHAR ch-28
ENCODING 28
SWIDTH 1000 0
DWIDTH 16 0
BBX 16 16 0 -2
BITMAP
1000
13ef
1129
7d2a
27ea
252c
452a
2be9
1129
292d
26aa
4248
0408
0008
0000
0000
ENDCHAR
STARTCHAR ch-30
ENCODING 30
SWIDTH 1000 0
DWIDTH 16 0
BBX 16 16 0 -2
BITMAP
2001
21fe
2854
2892
7d51
2844
29ff
2844
2844
2828
1010
2828
4444
0183
0000
0000
ENDCHAR
STARTCHAR ch-31
ENCODING 31
SWIDTH 1000 0
DWIDTH 16 0
BBX 16 16 0 -2
BITMAP
0802
08ff
0882
7efe
1200
12fe
1282
22fe
1482
08fe
1482
2282
408a
0084
0000
0000
ENDCHAR
STARTCHAR ch-32
ENCODING 32
SWIDTH 1000 0
DWIDTH 16 0
BBX 16 16 0 -2
BITMAP
08ff
0880
0884
7efe
1280
1282
12ff
24aa
14ac
08a8
1524
2523
4232
0020
0000
0000
ENDCHAR
STARTCHAR ch-35
ENCODING 35
SWIDTH 1000 0
DWIDTH 16 0
BBX 16 16 0 -2
BITMAP
0844
0824
08fe
7e12
12fe
1290
1290
22ff
1431
0831
1455
2292
4110
0010
0000
0000
ENDCHAR
STARTCHAR ch-37
ENCODING 37
SWIDTH 1000 0
DWIDTH 16 0
BBX 16 16 0 -2
BITMAP
0868
09ca
0849
7e48
13ff
1248
126a
22cc
1548
0854
1464
2445
4143
0081
0000
0000
ENDCHAR
STARTCHAR ch-41
ENCODING 41
SWIDTH 1000 0
DWIDTH 16 0
BBX 16 16 0 -2
BITMAP
0840
087c
0888
7f10
12fe
1292
1292
12fe
2292
1428
1c48
2289
4109
0207
0000
0000
ENDCHAR
STARTCHAR ch-45
ENCODING 45
SWIDTH 1000 0
DWIDTH 16 0
BBX 16 16 0 -2
BITMAP
2010
2020
2842
28ff
7c01
2840
28fe
2910
2810
29ff
1028
2844
4482
0101
0000
0000
ENDCHAR
STARTCHAR ch-46
ENCODING 46
SWIDTH 1000 0
DWIDTH 16 0
BBX 16 16 0 -2
BITMAP
2020
2010
25ff
2400
7efe
2400
24fe
2400
24fe
2482
1482
0882
14fe
6282
0000
0000
ENDCHAR
STARTCHAR ch-51
ENCODING 51
SWIDTH 1000 0
DWIDTH 16 0
BBX 16 16 0 -2
BITMAP
2011
21e1
2841
7c45
2845
29f5
2845
2845
28e5
2955
2a49
1041
2845
4442
0000
0000
ENDCHAR
STARTCHAR ch-53
ENCODING 53
SWIDTH 1000 0
DWIDTH 16 0
BBX 16 16 0 -2
BITMAP
2020
23f0
2520
7f2f
25e9
2529
2529
25e9
2529
252a
1be4
182a
2431
4221
0000
0000
ENDCHAR
STARTCHAR ch-54
ENCODING 54
SWIDTH 1000 0
DWIDTH 16 0
BBX 16 16 0 -2
BITMAP
3f80
117e
1f22
1124
1f14
1108
7f97
0122
7fff
0210
0610
0120
00c0
0738
0000
0000
ENDCHAR
STARTCHAR ch-55
ENCODING 55
SWIDTH 1000 0
DWIDTH 16 0
BBX 16 16 0 -2
BITMAP
2002
21fc
2010
2410
25ff
7e10
2454
25ff
2454
2454
29ff
1010
2810
45ff
0000
0000
ENDCHAR
STARTCHAR ch-56
ENCODING 56
SWIDTH 1000 0
DWIDTH 16 0
BBX 16 16 0 -2
BITMAP
2044
2044
29ff
2844
7e7c
2844
2844
287c
2844
2844
29ff
1044
2882
4501
0000
0000
ENDCHAR
STARTCHAR ch-57
ENCODING 57
SWIDTH 1000 0
DWIDTH 16 0
BBX 16 16 0 -2
BITMAP
21c8
2044
285f
7dc0
2904
2904
29c9
285f
2842
2844
1048
2852
449f
4501
0000
0000
ENDCHAR
STARTCHAR ch-60
ENCODING 60
SWIDTH 1000 0
DWIDTH 16 0
BBX 16 16 0 -2
BITMAP
2004
20fe
2484
24fc
7e84
24fc
2400
25fe
2502
2502
19fe
1902
2502
43fe
0000
0000
ENDCHAR
STARTCHAR ch-62
ENCODING 62
SWIDTH 1000 0
DWIDTH 16 0
BBX 16 16 0 -2
BITMAP
0002
20ff
2088
2488
24be
7e88
2488
24ff
2488
2488
28be
1108
2808
447f
0000
0000
ENDCHAR
STARTCHAR ch-64
ENCODING 64
SWIDTH 1000 0
DWIDTH 16 0
BBX 16 16 0 -2
BITMAP
13c0
127f
1282
7a82
2b3a
2aaa
2aaa
4aaa
2aaa
13ba
1282
2a02
4a0a
0204
0000
0000
ENDCHAR
STARTCHAR ch-65
ENCODING 65
SWIDTH 1000 0
DWIDTH 16 0
BBX 16 16 0 -2
BITMAP
0080
1ffc
1084
7fff
1084
1ffc
3ffe
2082
3ffe
0490
7fff
0220
01c0
3e3e
0000
0000
ENDCHAR
STARTCHAR ch-66
ENCODING 66
SWIDTH 1000 0
DWIDTH 16 0
BBX 16 16 0 -2
BITMAP
2020
2040
24fe
2582
7efe
2482
24fe
2410
25ff
2511
2911
1116
2810
4410
0000
0000
ENDCHAR
STARTCHAR ch-67
ENCODING 67
SWIDTH 1000 0
DWIDTH 16 0
BBX 16 16 0 -2
BITMAP
2020
2010
29ff
2901
7d01
287c
2800
28fe
2810
2854
1092
2911
4410
4410
0000
0000
ENDCHAR
STARTCHAR ch-68
ENCODING 68
SWIDTH 1000 0
DWIDTH 16 0
BBX 16 16 0 -2
BITMAP
2020
2010
25ff
2482
7e44
2428
25ff
2400
24fe
2882
1082
2882
44fe
4482
0000
0000
ENDCHAR
STARTCHAR ch-70
ENCODING 70
SWIDTH 1000 0
DWIDTH 16 0
BBX 16 16 0 -2
BITMAP
1010
0dff
2511
1112
01fc
0948
1130
376c
0100
7fff
0220
01c0
0630
180c
0000
0000
ENDCHAR
STARTCHAR ch-71
ENCODING 71
SWIDTH 1000 0
DWIDTH 16 0
BBX 16 16 0 -2
BITMAP
2002
21fc
2511
2492
7e54
2400
2410
25ff
2438
2854
1092
2911
4410
4410
0000
0000
ENDCHAR
STARTCHAR ch-72
ENCODING 72
SWIDTH 1000 0
DWIDTH 16 0
BBX 16 16 0 -2
BITMAP
2010
20fe
2410
25ff
7e44
24a2
2541
26fe
2544
2828
1010
2828
4444
4583
0000
0000
ENDCHAR
STARTCHAR ch-73
ENCODING 73
SWIDTH 1000 0
DWIDTH 16 0
BBX 16 16 0 -2
BITMAP
1020
1010
11ff
1101
7e80
24ee
24aa
452a
492e
2aaa
1048
2c89
4109
0207
0000
0000
ENDCHAR
STARTCHAR ch-74
ENCODING 74
SWIDTH 1000 0
DWIDTH 16 0
BBX 16 16 0 -2
BITMAP
0810
09ff
7e10
12fe
1210
1210
13ff
2220
1452
08d4
1548
2244
4063
0040
0000
0000
ENDCHAR
STARTCHAR ch-76
ENCODING 76
SWIDTH 1000 0
DWIDTH 16 0
BBX 16 16 0 -2
BITMAP
2080
2080
24e0
248f
7e81
27e9
2489
25c9
26a9
288a
1084
288a
4491
4591
0000
0000
ENDCHAR
STARTCHAR ch-77
ENCODING 77
SWIDTH 1000 0
DWIDTH 16 0
BBX 16 16 0 -2
BITMAP
2010
21ff
2444
2482
7f01
25ff
2402
24fa
248a
288a
10fa
2802
440a
4204
0000
0000
ENDCHAR
STARTCHAR ch-80
ENCODING 80
SWIDTH 1000 0
DWIDTH 16 0
BBX 16 16 0 -2
BITMAP
2000
20fe
2492
24fe
7e92
2492
24fe
2410
25ff
2438
2854
1092
2911
4410
0000
0000
ENDCHAR
STARTCHAR ch-81
ENCODING 81
SWIDTH 1000 0
DWIDTH 16 0
BBX 16 16 0 -2
BITMAP
2001
21fe
2410
25ff
7e54
2492
2551
2444
25ff
2844
1028
2810
4428
45c7
0000
0000
ENDCHAR
STARTCHAR ch-82
ENCODING 82
SWIDTH 1000 0
DWIDTH 16 0
BBX 16 16 0 -2
BITMAP
2092
2092
2854
2810
7e28
28c6
2800
2892
2892
2854
2810
1028
2844
4583
0000
0000
ENDCHAR
STARTCHAR ch-83
ENCODING 83
SWIDTH 1000 0
DWIDTH 16 0
BBX 16 16 0 -2
BITMAP
0140
3f7e
0140
3f7e
0140
3f7e
0240
7fff
0220
0140
0080
0140
0220
3c1e
0000
0000
ENDCHAR
STARTCHAR ch-85
ENCODING 85
SWIDTH 1000 0
DWIDTH 16 0
BBX 16 16 0 -2
BITMAP
1020
13fe
1020
7dfc
2424
27ff
2424
25fc
2924
113e
11a0
2960
4230
040f
0000
0000
ENDCHAR
STARTCHAR ch-86
ENCODING 86
SWIDTH 1000 0
DWIDTH 16 0
BBX 16 16 0 -2
BITMAP
2001
21fe
2410
25ff
7e28
2444
2492
2511
2450
2894
1115
2815
4451
4420
0000
0000
ENDCHAR
STARTCHAR ch-87
ENCODING 87
SWIDTH 1000 0
DWIDTH 16 0
BBX 16 16 0 -2
BITMAP
2020
204e
2982
2902
7dee
2902
2902
29fe
2848
2848
2849
1049
2889
450f
0000
0000
ENDCHAR
STARTCHAR ch-88
ENCODING 88
SWIDTH 1000 0
DWIDTH 16 0
BBX 16 16 0 -2
BITMAP
2092
2054
2438
25ff
7e10
25ff
2428
2444
24fe
2945
1044
2848
4441
447f
0000
0000
ENDCHAR
STARTCHAR ch-90
ENCODING 90
SWIDTH 1000 0
DWIDTH 16 0
BBX 16 16 0 -2
BITMAP
20fe
2490
2492
24ff
7e88
24a8
24c5
2403
24fe
2482
18fe
1882
24fe
4282
0000
0000
ENDCHAR
STARTCHAR ch-91
ENCODING 91
SWIDTH 1000 0
DWIDTH 16 0
BBX 16 16 0 -2
BITMAP
2020
2010
25ff
2400
7efe
2482
2482
24fe
2438
2854
1092
2911
4450
4420
0000
0000
ENDCHAR
STARTCHAR ch-92
ENCODING 92
SWIDTH 1000 0
DWIDTH 16 0
BBX 16 16 0 -2
BITMAP
3f80
247f
3f22
2114
3f08
2414
3fa2
0220
7ffe
0220
0140
0080
0140
3e3e
0000
0000
ENDCHAR
STARTCHAR ch-93
ENCODING 93
SWIDTH 1000 0
DWIDTH 16 0
BBX 16 16 0 -2
BITMAP
2020
2010
21ff
7f01
2501
247c
2410
2410
2410
249e
1890
18d0
24b0
431f
0000
0000
ENDCHAR
STARTCHAR ch-94
ENCODING 94
SWIDTH 1000 0
DWIDTH 16 0
BBX 16 16 0 -2
BITMAP
2010
20fe
2810
2810
7dff
2844
2828
28fe
2810
2810
2bff
1010
2810
4410
0000
0000
ENDCHAR
STARTCHAR ch-95
ENCODING 95
SWIDTH 1000 0
DWIDTH 16 0
BBX 16 16 0 -2
BITMAP
21ff
2111
2511
25ff
7f11
2511
257d
2545
2545
297d
1145
2901
45ff
4501
0000
0000
ENDCHAR
STARTCHAR ch-96
ENCODING 96
SWIDTH 1000 0
DWIDTH 16 0
BBX 16 16 0 -2
BITMAP
0020
2010
21ff
2501
2501
7efe
2482
2482
24fe
2480
28fe
1082
2882
44fe
0000
0000
ENDCHAR
STARTCHAR ch-98
ENCODING 98
SWIDTH 1000 0
DWIDTH 16 0
BBX 16 16 0 -2
BITMAP
0810
08fe
0892
7e92
12fe
1292
1292
12fe
2228
1448
09ff
1408
2208
4008
0000
0000
ENDCHAR
STARTCHAR ch-100
ENCODING 100
SWIDTH 1000 0
DWIDTH 16 0
BBX 16 16 0 -2
BITMAP
21ff
2111
2911
297d
7d11
297d
2901
297d
2945
2945
297d
1101
2905
4602
0000
0000
ENDCHAR
STARTCHAR ch-101
ENCODING 101
SWIDTH 1000 0
DWIDTH 16 0
BBX 16 16 0 -2
BITMAP
2010
201e
2410
24fe
7e82
24fe
2482
24fe
2410
25ff
1810
1810
2410
4210
0000
0000
ENDCHAR
STARTCHAR ch-102
ENCODING 102
SWIDTH 1000 0
DWIDTH 16 0
BBX 16 16 0 -2
BITMAP
20fe
2402
25ff
7e02
24fe
2400
25ff
2511
2410
24fe
1892
1892
2496
4210
0000
0000
ENDCHAR
STARTCHAR ch-103
ENCODING 103
SWIDTH 1000 0
DWIDTH 16 0
BBX 16 16 0 -2
BITMAP
0810
09ff
0810
7efe
1210
13ff
12fe
2282
14fe
0882
14fe
2282
428a
0084
0000
0000
ENDCHAR
STARTCHAR ch-105
ENCODING 105
SWIDTH 1000 0
DWIDTH 16 0
BBX 16 16 0 -2
BITMAP
2010
2092
2492
24fe
7e00
24ff
2480
24be
2488
24ff
2888
1088
2908
4408
0000
0000
ENDCHAR
STARTCHAR ch-106
ENCODING 106
SWIDTH 1000 0
DWIDTH 16 0
BBX 16 16 0 -2
BITMAP
0410
3f7e
0e38
1556
2492
0510
0102
7fff
0210
0410
0220
01c0
0230
0c08
0000
0000
ENDCHAR
STARTCHAR ch-108
ENCODING 108
SWIDTH 1000 0
DWIDTH 16 0
BBX 16 16 0 -2
BITMAP
2004
20f8
2511
2492
7e54
2400
2402
24fc
2410
2410
28fe
1010
2810
45ff
0000
0000
ENDCHAR
STARTCHAR ch-109
ENCODING 109
SWIDTH 1000 0
DWIDTH 16 0
BBX 16 16 0 -2
BITMAP
2002
21ff
2444
2444
7e44
25c7
2501
2501
2501
25c7
2844
1044
2844
45ff
0000
0000
ENDCHAR
STARTCHAR ch-112
ENCODING 112
SWIDTH 1000 0
DWIDTH 16 0
BBX 16 16 0 -2
BITMAP
2028
2028
24fe
24aa
7eaa
24fe
24aa
24aa
24aa
25ff
2400
1844
1882
6701
0000
0000
ENDCHAR
STARTCHAR ch-119
ENCODING 119
SWIDTH 1000 0
DWIDTH 16 0
BBX 16 16 0 -2
BITMAP
2010
21ff
2400
24fe
7e82
24fe
2400
25ff
2501
24fe
2810
1010
2810
4430
0000
0000
ENDCHAR
STARTCHAR ch-120
ENCODING 120
SWIDTH 1000 0
DWIDTH 16 0
BBX 16 16 0 -2
BITMAP
20fe
2082
28fe
2882
7cfe
2800
29ff
2840
28ff
2b49
2849
1049
2891
4406
0000
0000
ENDCHAR
STARTCHAR ch-122
ENCODING 122
SWIDTH 1000 0
DWIDTH 16 0
BBX 16 16 0 -2
BITMAP
3fa0
093f
0644
3fa8
0a90
1228
2647
0102
7fff
0210
0220
01c0
0230
1c0c
0000
0000
ENDCHAR
STARTCHAR ch-123
ENCODING 123
SWIDTH 1000 0
DWIDTH 16 0
BBX 16 16 0 -2
BITMAP
2010
21ff
2410
7e10
25ff
2545
2529
257d
2511
25ff
2911
1111
2915
4502
0000
0000
ENDCHAR
STARTCHAR ch-124
ENCODING 124
SWIDTH 1000 0
DWIDTH 16 0
BBX 16 16 0 -2
BITMAP
2044
21ff
2844
2810
7c10
29ff
2820
2840
28fe
2942
2a42
1042
287e
4442
0000
0000
ENDCHAR
STARTCHAR ch-125
ENCODING 125
SWIDTH 1000 0
DWIDTH 16 0
BBX 16 16 0 -2
BITMAP
21ef
2121
2521
25ef
7f00
2500
25ef
2509
2509
25e9
150a
0904
150a
6311
0000
0000
ENDCHAR
STARTCHAR ch-127
ENCODING 127
SWIDTH 1000 0
DWIDTH 16 0
BBX 16 16 0 -2
BITMAP
09ff
0811
089c
7e90
12d0
133f
12fe
2482
14fe
0882
14fe
1282
228a
4084
0000
0000
ENDCHAR
STARTCHAR ch-131
ENCODING 131
SWIDTH 1000 0
DWIDTH 16 0
BBX 16 16 0 -2
BITMAP
20fe
2024
2418
24ff
7e51
2492
2430
2410
25ff
2438
2854
1092
2911
4410
0000
0000
ENDCHAR
STARTCHAR ch-132
ENCODING 132
SWIDTH 1000 0
DWIDTH 16 0
BBX 16 16 0 -2
BITMAP
2082
2044
24fe
2410
7efe
2410
25ff
2410
2410
25ff
2828
1044
2882
4501
0000
0000
ENDCHAR
STARTCHAR ch-138
ENCODING 138
SWIDTH 1000 0
DWIDTH 16 0
BBX 16 16 0 -2
BITMAP
2102
2084
2448
25ff
7e00
25e5
2525
2525
25e5
2525
29e5
1121
2921
4563
0000
0000
ENDCHAR
STARTCHAR ch-139
ENCODING 139
SWIDTH 1000 0
DWIDTH 16 0
BBX 16 16 0 -2
BITMAP
2020
21fc
2820
29fc
7c20
2bfe
2888
2904
2bfe
2d05
29fc
1104
29fc
4504
0000
0000
ENDCHAR
STARTCHAR ch-140
ENCODING 140
SWIDTH 1000 0
DWIDTH 16 0
BBX 16 16 0 -2
BITMAP
2044
2044
25ef
2444
7e44
2400
25ff
2511
2511
25ff
2911
1111
29ff
4501
0000
0000
ENDCHAR
STARTCHAR ch-142
ENCODING 142
SWIDTH 1000 0
DWIDTH 16 0
BBX 16 16 0 -2
BITMAP
2010
2011
24fe
2414
7e18
25ff
2420
247e
24c2
297e
1042
2842
447e
4442
0000
0000
ENDCHAR
STARTCHAR ch-143
ENCODING 143
SWIDTH 1000 0
DWIDTH 16 0
BBX 16 16 0 -2
BITMAP
2010
2111
2511
25ff
7e00
25ff
2440
2480
25ff
2529
2929
1129
2929
4502
0000
0000
ENDCHAR
STARTCHAR ch-144
ENCODING 144
SWIDTH 1000 0
DWIDTH 16 0
BBX 16 16 0 -2
BITMAP
7f7e
4402
5f7e
5140
5f40
4441
7f7f
0410
7fff
0220
0140
0080
0140
3e3e
0000
0000
ENDCHAR
STARTCHAR ch-146
ENCODING 146
SWIDTH 1000 0
DWIDTH 16 0
BBX 16 16 0 -2
BITMAP
1088
13fe
7c88
24f8
2488
2488
24f8
4420
2bff
1070
28a8
2527
4222
0020
0000
0000
ENDCHAR
STARTCHAR ch-147
ENCODING 147
SWIDTH 1000 0
DWIDTH 16 0
BBX 16 16 0 -2
BITMAP
2040
2080
25fe
2482
7efe
2482
24fe
2482
2400
24fe
2810
11ff
2810
45ff
0000
0000
ENDCHAR
STARTCHAR ch-148
ENCODING 148
SWIDTH 1000 0
DWIDTH 16 0
BBX 16 16 0 -2
BITMAP
2002
21ff
2820
2840
7dff
2929
2929
2939
2929
2929
2939
1129
2929
45ff
0000
0000
ENDCHAR
STARTCHAR ch-149
ENCODING 149
SWIDTH 1000 0
DWIDTH 16 0
BBX 16 16 0 -2
BITMAP
2038
2044
2482
257d
7e00
24fe
2482
24fe
2444
25ff
2844
1044
2884
4704
0000
0000
ENDCHAR
STARTCHAR ch-151
ENCODING 151
SWIDTH 1000 0
DWIDTH 16 0
BBX 16 16 0 -2
BITMAP
2020
2010
25ff
2501
2501
7efe
2400
24fe
2482
24fe
2882
10fe
2800
45ff
0000
0000
ENDCHAR
STARTCHAR ch-154
ENCODING 154
SWIDTH 1000 0
DWIDTH 16 0
BBX 16 16 0 -2
BITMAP
08ff
0889
7e89
12ff
1280
12bf
12a1
22bf
14a1
08bf
14a1
2321
423f
0021
0000
0000
ENDCHAR
STARTCHAR ch-155
ENCODING 155
SWIDTH 1000 0
DWIDTH 16 0
BBX 16 16 0 -2
BITMAP
2002
21fc
2511
2492
7fff
2480
25ff
2480
24fe
24c4
2928
1210
2828
45c7
0000
0000
ENDCHAR
STARTCHAR ch-156
ENCODING 156
SWIDTH 1000 0
DWIDTH 16 0
BBX 16 16 0 -2
BITMAP
2010
201e
2410
24fe
7e82
2482
24fe
2482
24fe
2482
2882
10fe
2844
4482
0000
0000
ENDCHAR
STARTCHAR ch-157
ENCODING 157
SWIDTH 1000 0
DWIDTH 16 0
BBX 16 16 0 -2
BITMAP
7e49
0849
7f2a
2a08
4914
0863
0200
7fff
0220
0220
0140
0080
0140
3e3e
0000
0000
ENDCHAR
STARTCHAR ch-158
ENCODING 158
SWIDTH 1000 0
DWIDTH 16 0
BBX 16 16 0 -2
BITMAP
20fe
2082
28fe
2882
7cfe
2800
29ff
2810
2810
2850
285e
1050
28b0
451f
0000
0000
ENDCHAR
STARTCHAR ch-159
ENCODING 159
SWIDTH 1000 0
DWIDTH 16 0
BBX 16 16 0 -2
BITMAP
20a4
20a4
29ff
28a4
7cbc
2880
28fe
2810
2810
29ff
2854
1092
2911
4410
0000
0000
ENDCHAR
STARTCHAR ch-162
ENCODING 162
SWIDTH 1000 0
DWIDTH 16 0
BBX 16 16 0 -2
BITMAP
21ff
2101
297d
2901
7d7d
2800
28fe
2882
28fe
2882
28fe
1082
2882
44fe
0000
0000
ENDCHAR
STARTCHAR ch-165
ENCODING 165
SWIDTH 1000 0
DWIDTH 16 0
BBX 16 16 0 -2
BITMAP
2001
20fe
2880
28fe
7c82
28fe
2880
28ff
28a9
29a9
2aff
10a9
28a9
4483
0000
0000
ENDCHAR
STARTCHAR ch-166
ENCODING 166
SWIDTH 1000 0
DWIDTH 16 0
BBX 16 16 0 -2
BITMAP
20fe
2092
28fe
2892
7cfe
2800
28fe
2882
28fe
2882
28fe
1082
2882
4506
0000
0000
ENDCHAR
STARTCHAR ch-167
ENCODING 167
SWIDTH 1000 0
DWIDTH 16 0
BBX 16 16 0 -2
BITMAP
2000
20fe
2482
249e
7e92
2492
25ff
2501
257d
2545
2945
117d
2901
4506
0000
0000
ENDCHAR
STARTCHAR ch-169
ENCODING 169
SWIDTH 1000 0
DWIDTH 16 0
BBX 16 16 0 -2
BITMAP
208f
2089
2889
2be9
7c8f
2889
2889
2be9
2a2f
2a29
2a29
1229
2be9
4413
0000
0000
ENDCHAR
STARTCHAR ch-172
ENCODING 172
SWIDTH 1000 0
DWIDTH 16 0
BBX 16 16 0 -2
BITMAP
20be
20a2
2922
2a22
7d3e
2908
2908
297f
2908
291c
292a
1149
2908
4508
0000
0000
ENDCHAR
STARTCHAR ch-174
ENCODING 174
SWIDTH 1000 0
DWIDTH 16 0
BBX 16 16 0 -2
BITMAP
2038
2044
2482
2501
7e7c
2400
25f1
2515
25f5
2515
25f5
1911
2511
4333
0000
0000
ENDCHAR
STARTCHAR ch-175
ENCODING 175
SWIDTH 1000 0
DWIDTH 16 0
BBX 16 16 0 -2
BITMAP
2088
2850
29fc
2844
7c48
287e
2842
2884
29ff
2a01
2955
1155
2801
440e
0000
0000
ENDCHAR
STARTCHAR ch-176
ENCODING 176
SWIDTH 1000 0
DWIDTH 16 0
BBX 16 16 0 -2
BITMAP
2080
20ff
2891
7d95
28fd
2821
284e
2880
28ff
2921
2aa5
10fd
2821
444e
0000
0000
ENDCHAR
STARTCHAR ch-177
ENCODING 177
SWIDTH 1000 0
DWIDTH 16 0
BBX 16 16 0 -2
BITMAP
2020
207e
2882
2924
7c18
28f0
2840
28fe
2910
2810
29ff
1010
2911
45ff
0000
0000
ENDCHAR
STARTCHAR ch-178
ENCODING 178
SWIDTH 1000 0
DWIDTH 16 0
BBX 16 16 0 -2
BITMAP
0820
08fe
08aa
7e92
12aa
12c6
12fe
1288
2289
14ea
088c
1489
22a9
40c7
0000
0000
ENDCHAR
STARTCHAR ch-179
ENCODING 179
SWIDTH 1000 0
DWIDTH 16 0
BBX 16 16 0 -2
BITMAP
2040
20fe
2982
28fe
7c82
28fe
2882
28fe
2800
2820
2952
1141
2944
443c
0000
0000
ENDCHAR
STARTCHAR ch-180
ENCODING 180
SWIDTH 1000 0
DWIDTH 16 0
BBX 16 16 0 -2
BITMAP
2010
21ff
2410
7efe
2400
24fe
2482
24fe
2420
2441
28ca
1344
2852
44e1
0000
0000
ENDCHAR
STARTCHAR ch-181
ENCODING 181
SWIDTH 1000 0
DWIDTH 16 0
BBX 16 16 0 -2
BITMAP
3d24
24a8
25fe
2420
3fff
2488
2527
3e22
27ff
2448
2488
2470
2c8c
4702
0000
0000
ENDCHAR
STARTCHAR ch-182
ENCODING 182
SWIDTH 1000 0
DWIDTH 16 0
BBX 16 16 0 -2
BITMAP
2044
2044
25ff
2444
7e00
24ff
2442
247e
2442
247e
2842
10ff
2802
4602
0000
0000
ENDCHAR
STARTCHAR ch-183
ENCODING 183
SWIDTH 1000 0
DWIDTH 16 0
BBX 16 16 0 -2
BITMAP
20ff
2080
28be
2880
7cff
28a9
28a6
292a
2871
2804
29ff
1044
2824
440c
0000
0000
ENDCHAR
STARTCHAR ch-184
ENCODING 184
SWIDTH 1000 0
DWIDTH 16 0
BBX 16 16 0 -2
BITMAP
0810
0892
08fe
7e10
13ff
1210
12fe
2292
1492
08fe
1410
2212
42ff
4201
0000
0000
ENDCHAR
STARTCHAR ch-185
ENCODING 185
SWIDTH 1000 0
DWIDTH 16 0
BBX 16 16 0 -2
BITMAP
2040
218f
2505
2545
7f25
2559
2583
2400
25ff
2911
11ff
2911
4511
45ff
0000
0000
ENDCHAR
STARTCHAR ch-186
ENCODING 186
SWIDTH 1000 0
DWIDTH 16 0
BBX 16 16 0 -2
BITMAP
2088
2aa8
2aaf
2ab2
7fe2
280a
2bea
294a
294a
294a
296a
1164
2a4a
4411
0000
0000
ENDCHAR
STARTCHAR ch-187
ENCODING 187
SWIDTH 1000 0
DWIDTH 16 0
BBX 16 16 0 -2
BITMAP
103c
3f25
2947
2500
7fbe
2914
2508
4336
0410
7ffe
0140
0080
0140
1e3c
0000
0000
ENDCHAR
STARTCHAR ch-188
ENCODING 188
SWIDTH 1000 0
DWIDTH 16 0
BBX 16 16 0 -2
BITMAP
2000
21fc
2924
2924
7d54
298c
2904
29fc
2800
2bfe
2a52
1252
2a52
47ff
0000
0000
ENDCHAR
STARTCHAR ch-189
ENCODING 189
SWIDTH 1000 0
DWIDTH 16 0
BBX 16 16 0 -2
BITMAP
20fe
2088
2488
7efe
2488
24fe
2488
2488
24ff
2401
2955
1155
2801
4403
0000
0000
ENDCHAR
STARTCHAR ch-190
ENCODING 190
SWIDTH 1000 0
DWIDTH 16 0
BBX 16 16 0 -2
BITMAP
0844
09ff
0844
7efe
1244
13ff
1210
12fe
2292
14fe
0892
15ff
428a
0084
0000
0000
ENDCHAR
STARTCHAR ch-191
ENCODING 191
SWIDTH 1000 0
DWIDTH 16 0
BBX 16 16 0 -2
BITMAP
2040
28fe
2992
7c92
28fe
2892
2892
28fe
284a
284a
284f
1049
2889
450f
0000
0000
ENDCHAR
STARTCHAR ch-192
ENCODING 192
SWIDTH 1000 0
DWIDTH 16 0
BBX 16 16 0 -2
BITMAP
2010
21ff
24fe
2410
7fff
2444
2486
2579
2410
25ff
2854
1092
2911
4410
0000
0000
ENDCHAR
STARTCHAR ch-193
ENCODING 193
SWIDTH 1000 0
DWIDTH 16 0
BBX 16 16 0 -2
BITMAP
0810
09ff
0901
7e02
12fe
12a2
1336
2258
1498
0934
1454
2293
4212
0060
0000
0000
ENDCHAR
STARTCHAR ch-194
ENCODING 194
SWIDTH 1000 0
DWIDTH 16 0
BBX 16 16 0 -2
BITMAP
2050
2496
2492
7ed6
2492
24fe
2410
24fe
2444
2428
2810
1028
2847
4582
0000
0000
ENDCHAR
STARTCHAR ch-196
ENCODING 196
SWIDTH 1000 0
DWIDTH 16 0
BBX 16 16 0 -2
BITMAP
21ff
2110
2920
297e
7d42
297e
2942
297e
2908
292c
292a
1149
2a08
4418
0000
0000
ENDCHAR
STARTCHAR ch-198
ENCODING 198
SWIDTH 1000 0
DWIDTH 16 0
BBX 16 16 0 -2
BITMAP
2010
2010
29ff
2929
7d45
28aa
2844
2882
2901
28fe
2882
1082
28fe
4482
0000
0000
ENDCHAR
STARTCHAR ch-199
ENCODING 199
SWIDTH 1000 0
DWIDTH 16 0
BBX 16 16 0 -2
BITMAP
21ff
2101
297d
2844
7c7c
2844
287c
2844
2810
2810
29ff
1044
2882
4501
0000
0000
ENDCHAR
STARTCHAR ch-200
ENCODING 200
SWIDTH 1000 0
DWIDTH 16 0
BBX 16 16 0 -2
BITMAP
0808
4949
2a2a
1c1c
0808
1414
2222
7fff
4221
1ffc
0220
0140
0080
3f7e
0000
0000
ENDCHAR
STARTCHAR ch-201
ENCODING 201
SWIDTH 1000 0
DWIDTH 16 0
BBX 16 16 0 -2
BITMAP
1010
1008
10ff
7ca0
26be
25a8
24c8
45ff
2a88
2888
1110
2914
4623
0441
0000
0000
ENDCHAR
STARTCHAR ch-202
ENCODING 202
SWIDTH 1000 0
DWIDTH 16 0
BBX 16 16 0 -2
BITMAP
2010
21ff
2810
29ff
7c10
29ff
2810
2822
29fc
2809
29ff
1092
2911
4410
0000
0000
ENDCHAR
STARTCHAR ch-203
ENCODING 203
SWIDTH 1000 0
DWIDTH 16 0
BBX 16 16 0 -2
BITMAP
21ef
2021
2821
29ef
7d08
2908
29ef
2929
28a5
2821
29ed
1021
2821
44c6
0000
0000
ENDCHAR
STARTCHAR ch-204
ENCODING 204
SWIDTH 1000 0
DWIDTH 16 0
BBX 16 16 0 -2
BITMAP
1088
17ff
1050
7c50
25fc
2454
27ff
2454
45fc
28d8
1154
2a53
4450
0050
0000
0000
ENDCHAR
STARTCHAR ch-205
ENCODING 205
SWIDTH 1000 0
DWIDTH 16 0
BBX 16 16 0 -2
BITMAP
2004
20f8
2421
2512
7e94
2400
2440
258f
2501
2501
29ef
1101
2901
45ff
0000
0000
ENDCHAR
STARTCHAR ch-213
ENCODING 213
SWIDTH 1000 0
DWIDTH 16 0
BBX 16 16 0 -2
BITMAP
21ff
2920
297e
7d08
297f
2914
2922
29ff
2800
2aa2
2a91
2a89
1082
6cfe
0000
0000
ENDCHAR
STARTCHAR ch-214
ENCODING 214
SWIDTH 1000 0
DWIDTH 16 0
BBX 16 16 0 -2
BITMAP
09ff
0828
7efe
12aa
12aa
12fe
1200
22fe
1400
09ff
1454
2292
4111
0010
0000
0000
ENDCHAR
STARTCHAR ch-215
ENCODING 215
SWIDTH 1000 0
DWIDTH 16 0
BBX 16 16 0 -2
BITMAP
23ff
2200
2a7c
2a44
7e44
2a7c
2a00
2bef
2b29
2b29
2bef
1200
2a00
47ff
0000
0000
ENDCHAR
STARTCHAR ch-216
ENCODING 216
SWIDTH 1000 0
DWIDTH 16 0
BBX 16 16 0 -2
BITMAP
08fe
0892
08fe
7e92
12fe
1244
12f8
2210
1424
08fe
1410
2254
4292
0010
0000
0000
ENDCHAR
STARTCHAR ch-217
ENCODING 217
SWIDTH 1000 0
DWIDTH 16 0
BBX 16 16 0 -2
BITMAP
2008
2110
293f
2bc0
7d1f
2905
29c4
2944
2956
2954
2a54
105c
2854
45a3
0000
0000
ENDCHAR
STARTCHAR ch-218
ENCODING 218
SWIDTH 1000 0
DWIDTH 16 0
BBX 16 16 0 -2
BITMAP
20fe
2082
28fe
2882
7cfe
2800
29ff
2929
29ff
28fe
2844
1028
2810
45ef
0000
0000
ENDCHAR
STARTCHAR ch-219
ENCODING 219
SWIDTH 1000 0
DWIDTH 16 0
BBX 16 16 0 -2
BITMAP
7f3c
5025
5f47
6400
5f3e
4a14
5108
7f77
0400
7fff
0220
0140
0080
3f7e
0000
0000
ENDCHAR
STARTCHAR ch-220
ENCODING 220
SWIDTH 1000 0
DWIDTH 16 0
BBX 16 16 0 -2
BITMAP
0810
08fe
0828
7fff
1200
12fe
1282
12fe
2282
14fe
0810
15ff
2210
4210
0000
0000
ENDCHAR
STARTCHAR ch-221
ENCODING 221
SWIDTH 1000 0
DWIDTH 16 0
BBX 16 16 0 -2
BITMAP
2010
21ff
2510
257e
7f12
25ff
2512
257e
2512
25f4
2938
1154
2a92
4511
0000
0000
ENDCHAR
STARTCHAR ch-222
ENCODING 222
SWIDTH 1000 0
DWIDTH 16 0
BBX 16 16 0 -2
BITMAP
2010
21ff
2510
257e
7fff
2512
257e
2510
25ff
2591
29ff
12ff
2891
4492
0000
0000
ENDCHAR
STARTCHAR ch-223
ENCODING 223
SWIDTH 1000 0
DWIDTH 16 0
BBX 16 16 0 -2
BITMAP
21ff
2100
2924
297e
7d24
2910
297f
2910
293e
2962
293e
1122
2900
45ff
0000
0000
ENDCHAR
STARTCHAR ch-224
ENCODING 224
SWIDTH 1000 0
DWIDTH 16 0
BBX 16 16 0 -2
BITMAP
0420
1f3f
0422
3f54
1508
2436
1fff
1080
1fff
1110
1310
20e0
2318
4c06
0000
0000
ENDCHAR
STARTCHAR ch-225
ENCODING 225
SWIDTH 1000 0
DWIDTH 16 0
BBX 16 16 0 -2
BITMAP
2010
25ff
2444
7e28
24fe
2492
24fe
2492
24ba
24aa
18ba
1882
248a
4284
0000
0000
ENDCHAR
STARTCHAR ch-226
ENCODING 226
SWIDTH 1000 0
DWIDTH 16 0
BBX 16 16 0 -2
BITMAP
087e
0842
3e7a
087a
7f42
147e
2225
4547
7fff
0220
0140
0080
0140
3e3e
0000
0000
ENDCHAR
STARTCHAR ch-227
ENCODING 227
SWIDTH 1000 0
DWIDTH 16 0
BBX 16 16 0 -2
BITMAP
11fe
1010
109e
7c90
27ff
2480
24fe
4480
28ff
1001
1155
2955
4401
0006
0000
0000
ENDCHAR
STARTCHAR ch-229
ENCODING 229
SWIDTH 1000 0
DWIDTH 16 0
BBX 16 16 0 -2
BITMAP
2010
21ff
24fe
2492
7efe
2492
24fe
2411
25ff
2404
29ff
1044
2824
440c
0000
0000
ENDCHAR
STARTCHAR ch-230
ENCODING 230
SWIDTH 1000 0
DWIDTH 16 0
BBX 16 16 0 -2
BITMAP
0892
0854
09ff
7f01
127e
1244
127c
2210
14fe
0892
1492
2296
4210
0010
0000
0000
ENDCHAR
STARTCHAR ch-232
ENCODING 232
SWIDTH 1000 0
DWIDTH 16 0
BBX 16 16 0 -2
BITMAP
2044
21ff
2844
287c
2810
7cfe
2892
28fe
2810
28fe
2810
11ff
2844
4482
0000
0000
ENDCHAR
STARTCHAR ch-233
ENCODING 233
SWIDTH 1000 0
DWIDTH 16 0
BBX 16 16 0 -2
BITMAP
1088
13e8
108f
7891
2be9
2aa9
2aaa
4bea
2984
11c4
2aaa
248a
4091
00a0
0000
0000
ENDCHAR
STARTCHAR ch-234
ENCODING 234
SWIDTH 1000 0
DWIDTH 16 0
BBX 16 16 0 -2
BITMAP
21ef
20a5
2463
24a5
7f6b
2410
2428
2444
2492
2569
2810
10e4
2808
45f0
0000
0000
ENDCHAR
STARTCHAR ch-235
ENCODING 235
SWIDTH 1000 0
DWIDTH 16 0
BBX 16 16 0 -2
BITMAP
2044
21ff
2444
7e00
24fe
2482
24fe
2482
24fe
2410
25ff
1828
2447
4382
0000
0000
ENDCHAR
STARTCHAR ch-236
ENCODING 236
SWIDTH 1000 0
DWIDTH 16 0
BBX 16 16 0 -2
BITMAP
2008
21ff
2900
2924
7d24
29ff
2924
2924
2924
293c
2a00
10aa
28aa
4515
0000
0000
ENDCHAR
STARTCHAR ch-237
ENCODING 237
SWIDTH 1000 0
DWIDTH 16 0
BBX 16 16 0 -2
BITMAP
2010
201c
24ff
2491
7efe
2490
249e
2482
24fc
24aa
28ff
1108
2808
4418
0000
0000
ENDCHAR
STARTCHAR ch-238
ENCODING 238
SWIDTH 1000 0
DWIDTH 16 0
BBX 16 16 0 -2
BITMAP
21ff
2010
29ff
2955
7d55
2911
287c
2800
2bff
2880
28ff
1001
2812
440c
0000
0000
ENDCHAR
STARTCHAR ch-243
ENCODING 243
SWIDTH 1000 0
DWIDTH 16 0
BBX 16 16 0 -2
BITMAP
4920
2a3f
7f62
4914
5d08
6b14
4563
0410
7fff
0220
0140
0080
0140
3e3e
0000
0000
ENDCHAR
STARTCHAR ch-244
ENCODING 244
SWIDTH 1000 0
DWIDTH 16 0
BBX 16 16 0 -2
BITMAP
2010
21ff
2410
25ff
7f01
25ff
2410
25ff
2444
25ff
2810
11ff
2810
4410
0000
0000
ENDCHAR
STARTCHAR ch-245
ENCODING 245
SWIDTH 1000 0
DWIDTH 16 0
BBX 16 16 0 -2
BITMAP
2040
2040
28ff
29aa
7caa
28aa
29ff
28aa
28aa
29ff
2800
1129
2929
4529
0000
0000
ENDCHAR
STARTCHAR ch-246
ENCODING 246
SWIDTH 1000 0
DWIDTH 16 0
BBX 16 16 0 -2
BITMAP
2048
20fe
2588
2488
7efe
2488
2488
24fe
2488
2488
28fe
1000
2929
4529
0000
0000
ENDCHAR
STARTCHAR ch-247
ENCODING 247
SWIDTH 1000 0
DWIDTH 16 0
BBX 16 16 0 -2
BITMAP
23d0
227f
2a90
2b1f
7ea4
2a5f
2a40
2a5f
2a51
2b5f
2a91
121f
2a11
4623
0000
0000
ENDCHAR
STARTCHAR ch-248
ENCODING 248
SWIDTH 1000 0
DWIDTH 16 0
BBX 16 16 0 -2
BITMAP
0082
2044
21ff
2410
25ff
7e10
25ff
2444
25ff
2444
29ff
1101
2901
45ff
0000
0000
ENDCHAR
STARTCHAR ch-249
ENCODING 249
SWIDTH 1000 0
DWIDTH 16 0
BBX 16 16 0 -2
BITMAP
2044
21ff
2044
247c
2400
7fff
2400
24fe
2492
24fe
2892
10fe
2882
4501
0000
0000
ENDCHAR
STARTCHAR ch-251
ENCODING 251
SWIDTH 1000 0
DWIDTH 16 0
BBX 16 16 0 -2
BITMAP
21ef
2129
25ef
7f29
25ef
2501
2511
257d
2511
2555
1955
1911
2505
4302
0000
0000
ENDCHAR
STARTCHAR ch-253
ENCODING 253
SWIDTH 1000 0
DWIDTH 16 0
BBX 16 16 0 -2
BITMAP
2010
21ff
2410
2529
7ec6
2482
25ff
2482
24fe
2482
28fe
1092
2911
4430
0000
0000
ENDCHAR
STARTCHAR ch-255
ENCODING 255
SWIDTH 1000 0
DWIDTH 16 0
BBX 16 16 0 -2
BITMAP
2010
20fe
25ff
2412
7efe
2410
24fe
25ff
24fe
2492
28fe
1092
28fe
45ff
0000
0000
ENDCHAR
STARTCHAR ch-257
ENCODING 257
SWIDTH 1000 0
DWIDTH 16 0
BBX 16 16 0 -2
BITMAP
20ee
2028
2545
2482
7f01
24fe
2400
247c
2444
247c
2800
1044
2828
45ff
0000
0000
ENDCHAR
STARTCHAR ch-258
ENCODING 258
SWIDTH 1000 0
DWIDTH 16 0
BBX 16 16 0 -2
BITMAP
0080
208a
23e9
2948
2948
7fff
2808
2be8
2a2a
2bec
2a28
1235
2be3
4401
0000
0000
ENDCHAR
STARTCHAR ch-259
ENCODING 259
SWIDTH 1000 0
DWIDTH 16 0
BBX 16 16 0 -2
BITMAP
04ff
0820
127e
2442
087e
1242
247e
0842
107e
24a1
3ffe
0220
01c0
0e38
0000
0000
ENDCHAR
STARTCHAR ch-261
ENCODING 261
SWIDTH 1000 0
DWIDTH 16 0
BBX 16 16 0 -2
BITMAP
2044
2044
21ff
2444
25ff
7e92
25ff
2492
2492
25ff
2810
11ff
2810
4410
0000
0000
ENDCHAR
STARTCHAR ch-263
ENCODING 263
SWIDTH 1000 0
DWIDTH 16 0
BBX 16 16 0 -2
BITMAP
2010
20fe
2492
24fe
7e10
25ff
24fe
2482
24fe
2482
28fe
1082
28fe
4501
0000
0000
ENDCHAR
STARTCHAR ch-264
ENCODING 264
SWIDTH 1000 0
DWIDTH 16 0
BBX 16 16 0 -2
BITMAP
2010
20fe
2810
7dff
2844
29ff
2844
29ff
2800
29ff
2848
1089
2909
4607
0000
0000
ENDCHAR
STARTCHAR ch-265
ENCODING 265
SWIDTH 1000 0
DWIDTH 16 0
BBX 16 16 0 -2
BITMAP
2010
21ff
2410
24fe
7f00
24fe
2482
24fe
2444
25ff
1428
08fe
1482
62fe
0000
0000
ENDCHAR
STARTCHAR ch-267
ENCODING 267
SWIDTH 1000 0
DWIDTH 16 0
BBX 16 16 0 -2
BITMAP
20ee
20aa
24ee
7e00
24fe
2492
24fe
2492
24fe
2410
19ff
1810
2410
4210
0000
0000
ENDCHAR
STARTCHAR ch-268
ENCODING 268
SWIDTH 1000 0
DWIDTH 16 0
BBX 16 16 0 -2
BITMAP
2000
20fe
2810
29ff
7c44
28ba
2929
2838
29ff
2901
2939
1129
2939
4502
0000
0000
ENDCHAR
STARTCHAR ch-271
ENCODING 271
SWIDTH 1000 0
DWIDTH 16 0
BBX 16 16 0 -2
BITMAP
2002
21fc
2492
2454
7fff
2454
2492
2511
24fe
2492
28fe
1092
28fe
4482
0000
0000
ENDCHAR
STARTCHAR ch-272
ENCODING 272
SWIDTH 1000 0
DWIDTH 16 0
BBX 16 16 0 -2
BITMAP
2010
2028
2844
2882
7d7d
2800
29ef
2929
29ef
2800
2884
2884
114a
6e31
0000
0000
ENDCHAR
STARTCHAR ch-275
ENCODING 275
SWIDTH 1000 0
DWIDTH 16 0
BBX 16 16 0 -2
BITMAP
2084
23e8
2a3f
2be2
7e22
2be2
288a
2bea
290a
29ea
292a
2924
112a
6e71
0000
0000
ENDCHAR
STARTCHAR ch-276
ENCODING 276
SWIDTH 1000 0
DWIDTH 16 0
BBX 16 16 0 -2
BITMAP
2100
23e4
2854
289f
7fe4
2aa4
2aae
2be4
2944
295f
2940
1150
2948
467f
0000
0000
ENDCHAR
STARTCHAR ch-278
ENCODING 278
SWIDTH 1000 0
DWIDTH 16 0
BBX 16 16 0 -2
BITMAP
1f08
117f
1f22
1014
1f7f
2908
293e
4f08
0088
7fff
0120
0220
01c0
0630
0000
0000
ENDCHAR
STARTCHAR ch-279
ENCODING 279
SWIDTH 1000 0
DWIDTH 16 0
BBX 16 16 0 -2
BITMAP
2010
21ff
24fe
24ba
7eaa
24ba
24fe
247c
2444
247c
2444
147c
0800
75ff
0000
0000
ENDCHAR
STARTCHAR ch-281
ENCODING 281
SWIDTH 1000 0
DWIDTH 16 0
BBX 16 16 0 -2
BITMAP
2010
21ff
2492
2555
7e10
25ff
2400
25ff
2501
257d
2545
157d
0901
75ff
0000
0000
ENDCHAR
STARTCHAR ch-282
ENCODING 282
SWIDTH 1000 0
DWIDTH 16 0
BBX 16 16 0 -2
BITMAP
2010
21ff
2944
29ff
7d28
29fe
292a
29ff
292a
29fe
2a6c
10aa
2929
4428
0000
0000
ENDCHAR
STARTCHAR ch-283
ENCODING 283
SWIDTH 1000 0
DWIDTH 16 0
BBX 16 16 0 -2
BITMAP
21ff
2129
25ff
2400
7fff
2400
24fe
2482
24fe
2440
2844
10c8
2944
4663
0000
0000
ENDCHAR
STARTCHAR ch-285
ENCODING 285
SWIDTH 1000 0
DWIDTH 16 0
BBX 16 16 0 -2
BITMAP
2040
20fe
2182
26fe
2482
7efe
24fe
2480
24ff
2421
25fd
1449
08d1
376d
0000
0000
ENDCHAR
STARTCHAR ch-286
ENCODING 286
SWIDTH 1000 0
DWIDTH 16 0
BBX 16 16 0 -2
BITMAP
2028
21ff
282a
28fc
7e10
29ff
28fe
2892
28fe
28fe
2810
10fe
2810
45ff
0000
0000
ENDCHAR
STARTCHAR ch-288
ENCODING 288
SWIDTH 1000 0
DWIDTH 16 0
BBX 16 16 0 -2
BITMAP
207c
2044
287c
2800
7def
2929
29ef
2800
2810
29ff
2854
2892
1111
6c10
0000
0000
ENDCHAR
STARTCHAR ch-289
ENCODING 289
SWIDTH 1000 0
DWIDTH 16 0
BBX 16 16 0 -2
BITMAP
2002
21fc
2092
2454
7fff
2653
26c5
257c
2420
247c
24a8
1510
0828
75c6
0000
0000
ENDCHAR
STARTCHAR ch-291
ENCODING 291
SWIDTH 1000 0
DWIDTH 16 0
BBX 16 16 0 -2
BITMAP
2010
25ff
252b
2565
7ebe
2400
24fe
24aa
24aa
25ff
2800
10fe
2810
4430
0000
0000
ENDCHAR
STARTCHAR ch-292
ENCODING 292
SWIDTH 1000 0
DWIDTH 16 0
BBX 16 16 0 -2
BITMAP
2020
23ff
2244
7a44
2bff
2a44
2aee
4b55
2a20
1290
1224
2a42
44fe
0802
0000
0000
ENDCHAR
STARTCHAR ch-293
ENCODING 293
SWIDTH 1000 0
DWIDTH 16 0
BBX 16 16 0 -2
BITMAP
21ef
24a5
256b
7ea5
2442
2490
25ff
2488
24fe
2488
24fe
1888
24ff
4280
0000
0000
ENDCHAR
STARTCHAR ch-294
ENCODING 294
SWIDTH 1000 0
DWIDTH 16 0
BBX 16 16 0 -2
BITMAP
2010
21ff
2010
24fe
25ff
7e01
24ff
2410
25ff
25ff
2402
15ff
092a
75e6
0000
0000
ENDCHAR
STARTCHAR ch-295
ENCODING 295
SWIDTH 1000 0
DWIDTH 16 0
BBX 16 16 0 -2
BITMAP
2010
20fe
2412
25ff
7e12
24fe
2410
25ff
2529
2400
28fe
10aa
28aa
45ff
0000
0000
ENDCHAR
STARTCHAR ch-296
ENCODING 296
SWIDTH 1000 0
DWIDTH 16 0
BBX 16 16 0 -2
BITMAP
2044
29ff
2800
2842
7ca5
29ef
2842
28a5
29ef
2800
2952
2949
1042
6c7e
0000
0000
ENDCHAR
STARTCHAR ch-298
ENCODING 298
SWIDTH 1000 0
DWIDTH 16 0
BBX 16 16 0 -2
BITMAP
2010
21ff
257d
2511
7e54
2498
25fe
2442
247e
2442
287e
1042
287e
4481
0000
0000
ENDCHAR
STARTCHAR ch-300
ENCODING 300
SWIDTH 1000 0
DWIDTH 16 0
BBX 16 16 0 -2
BITMAP
21ff
2010
25ff
2555
7f39
2555
2400
25ff
2420
25ff
2929
1129
2929
4503
0000
0000
ENDCHAR
STARTCHAR ch-301
ENCODING 301
SWIDTH 1000 0
DWIDTH 16 0
BBX 16 16 0 -2
BITMAP
21ff
2492
2511
7fff
25bb
2555
25bb
2511
25bb
2555
29bb
1111
2911
4501
0000
0000
ENDCHAR
STARTCHAR ch-302
ENCODING 302
SWIDTH 1000 0
DWIDTH 16 0
BBX 16 16 0 -2
BITMAP
3fff
2f8c
2a8a
2fff
2f88
2888
2f88
4894
0fa2
0ae1
3ffe
0140
0080
0770
0000
0000
ENDCHAR
STARTCHAR ch-303
ENCODING 303
SWIDTH 1000 0
DWIDTH 16 0
BBX 16 16 0 -2
BITMAP
2010
20fe
207c
24fe
2482
7efe
25ff
257d
2424
24fc
2410
14fe
0810
75ff
0000
0000
ENDCHAR
STARTCHAR ch-304
ENCODING 304
SWIDTH 1000 0
DWIDTH 16 0
BBX 16 16 0 -2
BITMAP
0102
3fff
2142
3f7e
3f7e
2142
3f7e
1224
2142
0410
7fff
0220
01c0
0e38
0000
0000
ENDCHAR
STARTCHAR ch-306
ENCODING 306
SWIDTH 1000 0
DWIDTH 16 0
BBX 16 16 0 -2
BITMAP
7c1f
5515
5515
7d1f
5555
57f5
7d5f
1144
1144
7d5f
1485
1545
2629
5816
0000
0000
ENDCHAR
STARTCHAR ch-308
ENCODING 308
SWIDTH 1000 0
DWIDTH 16 0
BBX 16 16 0 -2
BITMAP
0080
7fff
1000
1ffc
0ff8
0ff8
3c9c
2494
3ff4
255c
3d54
2495
2775
4c23
0000
0000
ENDCHAR
STARTCHAR ch-312
ENCODING 312
SWIDTH 1000 0
DWIDTH 16 0
BBX 16 16 0 -2
BITMAP
2010
21ff
2505
24f8
7e54
2438
25ff
2454
2492
25ff
2892
10fe
2892
44fe
0000
0000
ENDCHAR
STARTCHAR ch-316
ENCODING 316
SWIDTH 1000 0
DWIDTH 16 0
BBX 16 16 0 -2
BITMAP
2101
2671
2451
2d55
7e15
28e5
2945
2a25
2ff5
2885
2be5
12a1
29c1
47f3
0000
0000
ENDCHAR
STARTCHAR ch-317
ENCODING 317
SWIDTH 1000 0
DWIDTH 16 0
BBX 16 16 0 -2
BITMAP
21fd
2155
29fd
7dff
2900
297f
2955
297f
2900
29ff
2810
11ff
2844
4482
0000
0000
ENDCHAR
STARTCHAR ch-318
ENCODING 318
SWIDTH 1000 0
DWIDTH 16 0
BBX 16 16 0 -2
BITMAP
2088
209f
23e1
2882
7fff
2ab1
2abf
2bf1
28df
29b1
2a9f
1080
288a
4491
0000
0000
ENDCHAR
STARTCHAR ch-319
ENCODING 319
SWIDTH 1000 0
DWIDTH 16 0
BBX 16 16 0 -2
BITMAP
2044
2044
29ff
2844
287c
7c00
28ba
28aa
29ab
28aa
29bb
1000
294a
4549
0000
0000
ENDCHAR
STARTCHAR ch-320
ENCODING 320
SWIDTH 1000 0
DWIDTH 16 0
BBX 16 16 0 -2
BITMAP
10fe
11ff
7d55
2638
24d4
2490
27fe
4492
299e
11d2
12be
2a92
449e
0092
0000
0000
ENDCHAR
STARTCHAR ch-323
ENCODING 323
SWIDTH 1000 0
DWIDTH 16 0
BBX 16 16 0 -2
BITMAP
2010
21ff
21ef
2529
25ef
7e44
25ff
25ff
2444
25ff
2892
118c
2aa4
44c3
0000
0000
ENDCHAR
STARTCHAR ch-325
ENCODING 325
SWIDTH 1000 0
DWIDTH 16 0
BBX 16 16 0 -2
BITMAP
2895
296c
2804
2bff
7ea4
29b4
28a4
29b5
28a6
29b6
28a4
11fd
2813
4621
0000
0000
ENDCHAR
STARTCHAR ch-327
ENCODING 327
SWIDTH 1000 0
DWIDTH 16 0
BBX 16 16 0 -2
BITMAP
228a
27df
22aa
2bcf
7e8a
2bcf
2a8a
2bcf
29fc
2888
2850
1020
2850
478f
0000
0000
ENDCHAR
STARTCHAR ch-328
ENCODING 328
SWIDTH 1000 0
DWIDTH 16 0
BBX 16 16 0 -2
BITMAP
2222
23fe
2890
29fc
7f10
29fc
29fc
2910
29fc
2bff
2a51
12f9
2b8d
46ff
0000
0000
ENDCHAR
STARTCHAR ch-331
ENCODING 331
SWIDTH 1000 0
DWIDTH 16 0
BBX 16 16 0 -2
BITMAP
23ff
2000
23cf
2b4d
7ecb
2bff
2a48
2bff
2a49
2bff
2a84
14e7
2894
44f7
0000
0000
ENDCHAR
STARTCHAR ch-332
ENCODING 332
SWIDTH 1000 0
DWIDTH 16 0
BBX 16 16 0 -2
BITMAP
0882
13e4
2409
79de
1004
25c9
7ddf
5555
55d5
0410
3ffe
0140
0080
0f78
0000
0000
ENDCHAR
STARTCHAR ch-333
ENCODING 333
SWIDTH 1000 0
DWIDTH 16 0
BBX 16 16 0 -2
BITMAP
21ef
2129
21ef
25ff
7f04
2574
2527
25fa
255a
2572
2572
1454
08f2
7419
0000
0000
ENDCHAR
STARTCHAR ch-334
ENCODING 334
SWIDTH 1000 0
DWIDTH 16 0
BBX 16 16 0 -2
BITMAP
21fe
2102
25fe
2598
7f54
25fe
25aa
25fe
25ff
25fd
25a5
16fd
0821
74ff
0000
0000
ENDCHAR
STARTCHAR ch-336
ENCODING 336
SWIDTH 1000 0
DWIDTH 16 0
BBX 16 16 0 -2
BITMAP
0008
1ffc
0010
0020
00c0
0082
7fff
0080
0080
0080
0080
0080
0280
0100
0000
0000
ENDCHAR
STARTCHAR ch-337
ENCODING 337
SWIDTH 1000 0
DWIDTH 16 0
BBX 16 16 0 -2
BITMAP
1ff8
0010
0020
00c0
0086
0098
00e0
0380
0c80
3080
2080
0080
0280
0100
0000
0000
ENDCHAR
STARTCHAR ch-339
ENCODING 339
SWIDTH 1000 0
DWIDTH 16 0
BBX 16 16 0 -2
BITMAP
1ff8
0010
0020
08c0
0480
0280
0180
0080
00c0
00a0
0098
0086
0280
0100
0000
0000
ENDCHAR
STARTCHAR ch-340
ENCODING 340
SWIDTH 1000 0
DWIDTH 16 0
BBX 16 16 0 -2
BITMAP
0120
3fa0
0120
0220
0420
0420
05e0
0e20
7420
0421
0421
0421
1421
081f
0000
0000
ENDCHAR
STARTCHAR ch-341
ENCODING 341
SWIDTH 1000 0
DWIDTH 16 0
BBX 16 16 0 -2
BITMAP
1ff8
0410
0412
043f
0802
0be2
102a
2044
0080
7fff
0080
0080
0280
0100
0000
0000
ENDCHAR
STARTCHAR ch-342
ENCODING 342
SWIDTH 1000 0
DWIDTH 16 0
BBX 16 16 0 -2
BITMAP
7f7f
0202
0404
0808
0a08
0c08
187f
6808
0808
0808
0808
0808
2828
1010
0000
0000
ENDCHAR
STARTCHAR ch-343
ENCODING 343
SWIDTH 1000 0
DWIDTH 16 0
BBX 16 16 0 -2
BITMAP
0100
0080
1ffe
1002
2024
0ff0
0040
0082
7fff
0080
0080
0080
0280
0100
0000
0000
ENDCHAR
STARTCHAR ch-344
ENCODING 344
SWIDTH 1000 0
DWIDTH 16 0
BBX 16 16 0 -2
BITMAP
0100
0102
7fff
0200
05fc
0808
0810
1822
2fff
4820
0820
0820
08a0
0840
0000
0000
ENDCHAR
STARTCHAR ch-346
ENCODING 346
SWIDTH 1000 0
DWIDTH 16 0
BBX 16 16 0 -2
BITMAP
003c
1fc0
0008
0888
0490
1ff8
0020
0040
0082
7fff
0080
0080
0280
0100
0000
0000
ENDCHAR
STARTCHAR ch-347
ENCODING 347
SWIDTH 1000 0
DWIDTH 16 0
BBX 16 16 0 -2
BITMAP
0080
0084
3ffe
0080
3fff
2002
4ff4
0020
00c0
0082
7fff
0080
0280
0100
0000
0000
ENDCHAR
STARTCHAR ch-348
ENCODING 348
SWIDTH 1000 0
DWIDTH 16 0
BBX 16 16 0 -2
BITMAP
0240
7f40
0242
047f
0884
0ac4
0d44
7844
2828
0810
0828
0844
2887
1302
0000
0000
ENDCHAR
STARTCHAR ch-349
ENCODING 349
SWIDTH 1000 0
DWIDTH 16 0
BBX 16 16 0 -2
BITMAP
0100
0108
1ff0
0120
0142
7fff
0100
1ff0
0840
1084
2ffe
4080
0280
0100
0000
0000
ENDCHAR
STARTCHAR ch-351
ENCODING 351
SWIDTH 1000 0
DWIDTH 16 0
BBX 16 16 0 -2
BITMAP
0ff8
0010
0060
0082
7fff
0080
0080
0280
0104
1ffe
1224
1224
1224
7fff
0000
0000
ENDCHAR
STARTCHAR ch-354
ENCODING 354
SWIDTH 1000 0
DWIDTH 16 0
BBX 16 16 0 -2
BITMAP
0040
7e44
02fe
0504
09f4
0f14
1914
69f4
0904
0914
0908
0901
2901
10ff
0000
0000
ENDCHAR
STARTCHAR ch-355
ENCODING 355
SWIDTH 1000 0
DWIDTH 16 0
BBX 16 16 0 -2
BITMAP
0070
0f80
0084
3ffe
02a0
0498
1887
67f2
0020
7fff
0080
0080
0280
0100
0000
0000
ENDCHAR
STARTCHAR ch-356
ENCODING 356
SWIDTH 1000 0
DWIDTH 16 0
BBX 16 16 0 -2
BITMAP
0008
3e1c
0260
0590
0950
0b50
0d50
1950
6948
0948
0a44
0a97
2cf2
1010
0000
0000
ENDCHAR
STARTCHAR ch-357
ENCODING 357
SWIDTH 1000 0
DWIDTH 16 0
BBX 16 16 0 -2
BITMAP
0804
7f7e
1104
1a28
0410
1a2c
6143
0ff0
0020
00c2
7fff
0080
0280
0100
0000
0000
ENDCHAR
STARTCHAR ch-361
ENCODING 361
SWIDTH 1000 0
DWIDTH 16 0
BBX 16 16 0 -2
BITMAP
0020
7e12
05ff
0820
1044
0a84
0df8
188a
6812
0824
08c8
0b14
2862
1381
0000
0000
ENDCHAR
STARTCHAR ch-363
ENCODING 363
SWIDTH 1000 0
DWIDTH 16 0
BBX 16 16 0 -2
BITMAP
7f07
02f8
0410
0820
0844
0b78
0c10
1822
69ff
0811
0854
0892
2911
1010
0000
0000
ENDCHAR
STARTCHAR ch-364
ENCODING 364
SWIDTH 1000 0
DWIDTH 16 0
BBX 16 16 0 -2
BITMAP
0004
3ffe
02b0
0c8c
3082
087c
7f04
1108
1112
31ff
0a10
0410
0a50
3120
0000
0000
ENDCHAR
STARTCHAR ch-366
ENCODING 366
SWIDTH 1000 0
DWIDTH 16 0
BBX 16 16 0 -2
BITMAP
0020
7c10
05ff
0901
1101
107c
1400
19ff
7010
1054
1092
1111
5010
2010
0000
0000
ENDCHAR
STARTCHAR ch-368
ENCODING 368
SWIDTH 1000 0
DWIDTH 16 0
BBX 16 16 0 -2
BITMAP
0820
7fa0
0024
3f7e
2124
3f24
0064
1e34
042c
0f44
7445
0485
1485
0903
0000
0000
ENDCHAR
STARTCHAR ch-369
ENCODING 369
SWIDTH 1000 0
DWIDTH 16 0
BBX 16 16 0 -2
BITMAP
1ffe
1002
1ffe
13f0
1020
17fe
1040
10c0
1fbe
1104
1208
2fbf
4208
0618
0000
0000
ENDCHAR
STARTCHAR ch-370
ENCODING 370
SWIDTH 1000 0
DWIDTH 16 0
BBX 16 16 0 -2
BITMAP
0002
7dff
0444
0844
1044
11c7
1501
1901
3101
51c7
1044
1044
5044
21ff
0000
0000
ENDCHAR
STARTCHAR ch-371
ENCODING 371
SWIDTH 1000 0
DWIDTH 16 0
BBX 16 16 0 -2
BITMAP
0410
7fff
0408
0912
3e7c
0810
7f7e
0102
07f0
0040
7fff
0040
0040
01c0
0000
0000
ENDCHAR
STARTCHAR ch-373
ENCODING 373
SWIDTH 1000 0
DWIDTH 16 0
BBX 16 16 0 -2
BITMAP
0806
1078
2b81
2aaa
2a80
3bbe
2a84
2b88
3aff
0a08
1208
1208
2228
4210
0000
0000
ENDCHAR
STARTCHAR ch-375
ENCODING 375
SWIDTH 1000 0
DWIDTH 16 0
BBX 16 16 0 -2
BITMAP
0410
3f9f
0434
7fc8
1514
24a2
3fff
2000
23f8
2010
2ffe
2020
40a0
0040
0000
0000
ENDCHAR
STARTCHAR ch-376
ENCODING 376
SWIDTH 1000 0
DWIDTH 16 0
BBX 16 16 0 -2
BITMAP
0400
095c
3084
1d5c
1144
1c9c
1144
7fff
4001
47f1
0040
1ffc
0020
01c0
0000
0000
ENDCHAR
STARTCHAR ch-378
ENCODING 378
SWIDTH 1000 0
DWIDTH 16 0
BBX 16 16 0 -2
BITMAP
7dfe
0420
0bff
12a9
1471
11ac
1c20
73ff
1040
13fe
1252
1252
5252
2206
0000
0000
ENDCHAR
STARTCHAR ch-379
ENCODING 379
SWIDTH 1000 0
DWIDTH 16 0
BBX 16 16 0 -2
BITMAP
7c10
04fe
0812
11ff
1012
10fe
7c10
11ff
1129
1000
10fe
10aa
10aa
31ff
0000
0000
ENDCHAR
STARTCHAR ch-381
ENCODING 381
SWIDTH 1000 0
DWIDTH 16 0
BBX 16 16 0 -2
BITMAP
0220
7fff
0810
3f7c
2128
3f28
20fe
3f10
217c
3f10
07f0
3ffe
0080
0180
0000
0000
ENDCHAR
STARTCHAR ch-383
ENCODING 383
SWIDTH 1000 0
DWIDTH 16 0
BBX 16 16 0 -2
BITMAP
1084
27e9
4812
73fc
2409
7fff
03e0
5635
57f5
07e0
0040
7fff
0080
0180
0000
0000
ENDCHAR
STARTCHAR ch-385
ENCODING 385
SWIDTH 1000 0
DWIDTH 16 0
BBX 16 16 0 -2
BITMAP
0100
0080
7fff
4001
4001
0004
3ffe
0080
0080
0080
0080
0080
0280
0100
0000
0000
ENDCHAR
STARTCHAR ch-387
ENCODING 387
SWIDTH 1000 0
DWIDTH 16 0
BBX 16 16 0 -2
BITMAP
0100
0082
3fff
2002
4004
0400
0400
0430
04c0
0700
0404
0404
0404
03fc
0000
0000
ENDCHAR
STARTCHAR ch-388
ENCODING 388
SWIDTH 1000 0
DWIDTH 16 0
BBX 16 16 0 -2
BITMAP
0100
0082
3fff
2102
4104
0110
1ff8
0110
0110
0210
0411
0811
1011
200f
0000
0000
ENDCHAR
STARTCHAR ch-389
ENCODING 389
SWIDTH 1000 0
DWIDTH 16 0
BBX 16 16 0 -2
BITMAP
0100
3fff
2002
4034
00c0
1f00
0100
0104
7ffe
0100
0100
0101
0101
00ff
0000
0000
ENDCHAR
STARTCHAR ch-391
ENCODING 391
SWIDTH 1000 0
DWIDTH 16 0
BBX 16 16 0 -2
BITMAP
0100
0080
3fff
2001
4012
0ff8
0080
0084
3ffe
0080
0080
0080
0280
0100
0000
0000
ENDCHAR
STARTCHAR ch-392
ENCODING 392
SWIDTH 1000 0
DWIDTH 16 0
BBX 16 16 0 -2
BITMAP
0100
0080
3fff
2001
4012
0012
3fff
0010
0410
0210
0210
0010
0050
0020
0000
0000
ENDCHAR
STARTCHAR ch-393
ENCODING 393
SWIDTH 1000 0
DWIDTH 16 0
BBX 16 16 0 -2
BITMAP
0080
1ffe
1002
2104
0100
7fff
0210
0410
0c20
0320
00c0
0120
0610
180c
0000
0000
ENDCHAR
STARTCHAR ch-395
ENCODING 395
SWIDTH 1000 0
DWIDTH 16 0
BBX 16 16 0 -2
BITMAP
0100
0082
3fff
2002
4084
0080
7fff
02a0
0490
0888
1087
2082
0080
0080
0000
0000
ENDCHAR
STARTCHAR ch-396
ENCODING 396
SWIDTH 1000 0
DWIDTH 16 0
BBX 16 16 0 -2
BITMAP
0100
0082
3fff
2002
4024
0ff0
0000
3ffe
0240
0240
0442
0442
0842
303e
0000
0000
ENDCHAR
STARTCHAR ch-398
ENCODING 398
SWIDTH 1000 0
DWIDTH 16 0
BBX 16 16 0 -2
BITMAP
0080
7fff
4001
4031
01c0
0680
0080
0080
7fff
0140
0220
0410
0808
3006
0000
0000
ENDCHAR
STARTCHAR ch-399
ENCODING 399
SWIDTH 1000 0
DWIDTH 16 0
BBX 16 16 0 -2
BITMAP
0080
3ffe
2002
4104
0100
7fff
0200
0240
0440
0880
0910
1208
27fc
0004
0000
0000
ENDCHAR
STARTCHAR ch-402
ENCODING 402
SWIDTH 1000 0
DWIDTH 16 0
BBX 16 16 0 -2
BITMAP
0100
0080
7fff
4001
4021
00c0
0f80
0080
1ffc
0080
3ffe
0080
0081
00ff
0000
0000
ENDCHAR
STARTCHAR ch-403
ENCODING 403
SWIDTH 1000 0
DWIDTH 16 0
BBX 16 16 0 -2
BITMAP
0100
0080
3fff
2001
4102
0488
0410
0420
1484
1502
2602
0408
0c08
33fc
0000
0000
ENDCHAR
STARTCHAR ch-405
ENCODING 405
SWIDTH 1000 0
DWIDTH 16 0
BBX 16 16 0 -2
BITMAP
0100
0082
3fff
2002
4004
7fff
0200
0408
07fc
0c08
1408
2408
07f8
0408
0000
0000
ENDCHAR
STARTCHAR ch-407
ENCODING 407
SWIDTH 1000 0
DWIDTH 16 0
BBX 16 16 0 -2
BITMAP
0100
0082
3fff
2002
4004
0ff0
0000
0000
7fff
0890
1888
2086
4082
0080
0000
0000
ENDCHAR
STARTCHAR ch-408
ENCODING 408
SWIDTH 1000 0
DWIDTH 16 0
BBX 16 16 0 -2
BITMAP
0080
3fff
2001
4012
0ff8
0810
0810
0ff0
0808
0ffc
0808
0808
0ff8
0800
0000
0000
ENDCHAR
STARTCHAR ch-409
ENCODING 409
SWIDTH 1000 0
DWIDTH 16 0
BBX 16 16 0 -2
BITMAP
0100
0080
3fff
2001
4082
0080
1ffc
1084
1084
1ffc
1084
1084
1ffc
1004
0000
0000
ENDCHAR
STARTCHAR ch-410
ENCODING 410
SWIDTH 1000 0
DWIDTH 16 0
BBX 16 16 0 -2
BITMAP
0100
0082
3fff
2002
4004
1ff8
0080
0880
0888
08fc
0880
1480
2280
41ff
0000
0000
ENDCHAR
STARTCHAR ch-411
ENCODING 411
SWIDTH 1000 0
DWIDTH 16 0
BBX 16 16 0 -2
BITMAP
0100
0080
3fff
2001
4802
0f7c
0944
1144
1954
2548
4240
0441
0841
103f
0000
0000
ENDCHAR
STARTCHAR ch-412
ENCODING 412
SWIDTH 1000 0
DWIDTH 16 0
BBX 16 16 0 -2
BITMAP
0100
0080
3fff
2001
4012
07f8
0410
0410
07f0
0410
07f0
0410
0412
7fff
0000
0000
ENDCHAR
STARTCHAR ch-418
ENCODING 418
SWIDTH 1000 0
DWIDTH 16 0
BBX 16 16 0 -2
BITMAP
0100
3fff
2401
47fa
0410
0a20
11c0
0630
180f
67f2
0410
0410
07f0
0410
0000
0000
ENDCHAR
STARTCHAR ch-419
ENCODING 419
SWIDTH 1000 0
DWIDTH 16 0
BBX 16 16 0 -2
BITMAP
0100
0080
3fff
2001
4002
1ffc
0000
0ff8
0808
0ff8
0808
0ff8
0002
7fff
0000
0000
ENDCHAR
STARTCHAR ch-420
ENCODING 420
SWIDTH 1000 0
DWIDTH 16 0
BBX 16 16 0 -2
BITMAP
0100
7fff
4001
4009
1ffc
0200
0410
0ff8
0088
0080
0ff8
0080
0084
3ffe
0000
0000
ENDCHAR
STARTCHAR ch-421
ENCODING 421
SWIDTH 1000 0
DWIDTH 16 0
BBX 16 16 0 -2
BITMAP
0100
3fff
2102
4104
7fff
0200
07f8
0c08
17f8
2408
07f8
0408
0428
0410
0000
0000
ENDCHAR
STARTCHAR ch-422
ENCODING 422
SWIDTH 1000 0
DWIDTH 16 0
BBX 16 16 0 -2
BITMAP
0100
0080
3fff
2001
4ffa
0880
0880
0ff8
0808
0ff8
0880
0880
0ffc
0800
0000
0000
ENDCHAR
STARTCHAR ch-423
ENCODING 423
SWIDTH 1000 0
DWIDTH 16 0
BBX 16 16 0 -2
BITMAP
0100
0080
7fff
4001
5ffd
1040
1040
17fc
1404
1404
17fc
1040
1040
1ffc
0000
0000
ENDCHAR
STARTCHAR ch-424
ENCODING 424
SWIDTH 1000 0
DWIDTH 16 0
BBX 16 16 0 -2
BITMAP
0100
0080
7fff
4001
4422
0420
1428
0c30
0420
0c30
342c
0821
1021
603f
0000
0000
ENDCHAR
STARTCHAR ch-428
ENCODING 428
SWIDTH 1000 0
DWIDTH 16 0
BBX 16 16 0 -2
BITMAP
0100
0080
7fff
4001
4029
1024
1ffe
1020
1f20
1122
1114
1109
2615
4063
0000
0000
ENDCHAR
STARTCHAR ch-429
ENCODING 429
SWIDTH 1000 0
DWIDTH 16 0
BBX 16 16 0 -2
BITMAP
0100
0080
7fff
4001
5ff9
0108
7fff
0108
1ff8
0400
0ffc
1404
2404
07fc
0000
0000
ENDCHAR
STARTCHAR ch-430
ENCODING 430
SWIDTH 1000 0
DWIDTH 16 0
BBX 16 16 0 -2
BITMAP
0100
0080
3fff
2001
47f2
0410
0410
07f0
0100
0ff8
0808
0808
0ff8
0808
0000
0000
ENDCHAR
STARTCHAR ch-432
ENCODING 432
SWIDTH 1000 0
DWIDTH 16 0
BBX 16 16 0 -2
BITMAP
0080
3fff
2101
4082
1ffc
0410
0220
0142
7fff
0080
0088
1ffc
0080
0080
0000
0000
ENDCHAR
STARTCHAR ch-435
ENCODING 435
SWIDTH 1000 0
DWIDTH 16 0
BBX 16 16 0 -2
BITMAP
0100
3fff
2081
4ffa
0080
0ff8
0080
3ffe
0080
0ff8
0808
0808
0ff8
0808
0000
0000
ENDCHAR
STARTCHAR ch-436
ENCODING 436
SWIDTH 1000 0
DWIDTH 16 0
BBX 16 16 0 -2
BITMAP
0100
3fff
2001
4ffa
0808
0ff8
0808
0ff8
0102
7fff
0620
01c0
0638
1804
0000
0000
ENDCHAR
STARTCHAR ch-437
ENCODING 437
SWIDTH 1000 0
DWIDTH 16 0
BBX 16 16 0 -2
BITMAP
0100
0080
3fff
2081
4492
02a0
0ff8
0808
0ff8
0808
0ff8
0808
0808
0830
0000
0000
ENDCHAR
STARTCHAR ch-438
ENCODING 438
SWIDTH 1000 0
DWIDTH 16 0
BBX 16 16 0 -2
BITMAP
0100
3fff
2002
4004
1ffc
0d08
3198
02a0
0cc0
31a0
0298
0c87
3282
0100
0000
0000
ENDCHAR
STARTCHAR ch-440
ENCODING 440
SWIDTH 1000 0
DWIDTH 16 0
BBX 16 16 0 -2
BITMAP
0080
7fff
4001
4ff9
0800
0ff8
0800
0ff8
0a40
0a22
0a14
1248
2284
4703
0000
0000
ENDCHAR
STARTCHAR ch-441
ENCODING 441
SWIDTH 1000 0
DWIDTH 16 0
BBX 16 16 0 -2
BITMAP
0100
3fff
2001
4222
0498
0948
0220
0410
0808
17f7
6412
0410
07f0
0410
0000
0000
ENDCHAR
STARTCHAR ch-447
ENCODING 447
SWIDTH 1000 0
DWIDTH 16 0
BBX 16 16 0 -2
BITMAP
0100
0080
3fff
2001
4802
0bff
1020
3044
51fe
1104
11fc
1104
11fc
1104
0000
0000
ENDCHAR
STARTCHAR ch-448
ENCODING 448
SWIDTH 1000 0
DWIDTH 16 0
BBX 16 16 0 -2
BITMAP
0080
7fff
4005
5ff9
0884
0448
0290
0080
7fff
0490
0888
1084
6083
0080
0000
0000
ENDCHAR
STARTCHAR ch-449
ENCODING 449
SWIDTH 1000 0
DWIDTH 16 0
BBX 16 16 0 -2
BITMAP
0080
7fff
4081
1ffc
0080
1ffc
0084
7fff
0084
1ffc
0880
08fc
1480
63ff
0000
0000
ENDCHAR
STARTCHAR ch-450
ENCODING 450
SWIDTH 1000 0
DWIDTH 16 0
BBX 16 16 0 -2
BITMAP
0100
3fff
2002
4404
077c
0444
7fc4
0428
1628
1590
2490
4428
1447
0982
0000
0000
ENDCHAR
STARTCHAR ch-452
ENCODING 452
SWIDTH 1000 0
DWIDTH 16 0
BBX 16 16 0 -2
BITMAP
0100
3fff
2082
4084
0ff8
0140
0222
3fff
0008
0fc8
0848
0fc8
0828
0010
0000
0000
ENDCHAR
STARTCHAR ch-453
ENCODING 453
SWIDTH 1000 0
DWIDTH 16 0
BBX 16 16 0 -2
BITMAP
0080
3fff
2001
400a
1ffc
0080
0ff8
0888
0ff8
0888
0ff8
0410
080c
1004
0000
0000
ENDCHAR
STARTCHAR ch-454
ENCODING 454
SWIDTH 1000 0
DWIDTH 16 0
BBX 16 16 0 -2
BITMAP
0100
0080
3fff
2101
4492
1464
2582
0608
3bf8
0080
1084
1084
1ffc
1004
0000
0000
ENDCHAR
STARTCHAR ch-455
ENCODING 455
SWIDTH 1000 0
DWIDTH 16 0
BBX 16 16 0 -2
BITMAP
0100
0080
3fff
2021
423a
1f20
00f8
3f88
0a50
0a70
128c
1305
2201
41ff
0000
0000
ENDCHAR
STARTCHAR ch-458
ENCODING 458
SWIDTH 1000 0
DWIDTH 16 0
BBX 16 16 0 -2
BITMAP
0080
7fff
4081
40f9
0080
1ffc
1004
1ffc
1004
1ffc
1004
1ffc
0808
3006
0000
0000
ENDCHAR
STARTCHAR ch-459
ENCODING 459
SWIDTH 1000 0
DWIDTH 16 0
BBX 16 16 0 -2
BITMAP
0080
7fff
4411
5ffd
0410
1ffc
0410
3ffe
0808
17f4
6413
04f0
0402
07fe
0000
0000
ENDCHAR
STARTCHAR ch-460
ENCODING 460
SWIDTH 1000 0
DWIDTH 16 0
BBX 16 16 0 -2
BITMAP
0080
7fff
4001
5ffd
0000
0ff8
0808
0ff8
0000
3ffe
2082
3ffe
2082
3ffe
0000
0000
ENDCHAR
STARTCHAR ch-461
ENCODING 461
SWIDTH 1000 0
DWIDTH 16 0
BBX 16 16 0 -2
BITMAP
0100
0080
3fff
2091
2249
4a25
0a04
13fc
0000
0ffc
0924
0924
0924
3fff
0000
0000
ENDCHAR
STARTCHAR ch-462
ENCODING 462
SWIDTH 1000 0
DWIDTH 16 0
BBX 16 16 0 -2
BITMAP
0080
7fff
4001
4000
25ff
2410
2410
3dff
0511
7d11
2529
2545
2501
4503
0000
0000
ENDCHAR
STARTCHAR ch-464
ENCODING 464
SWIDTH 1000 0
DWIDTH 16 0
BBX 16 16 0 -2
BITMAP
0100
3fff
2002
5214
12fe
1e10
0212
7fff
1210
1238
1254
1293
2312
0210
0000
0000
ENDCHAR
STARTCHAR ch-465
ENCODING 465
SWIDTH 1000 0
DWIDTH 16 0
BBX 16 16 0 -2
BITMAP
0080
7fff
4001
0bfe
1002
67ff
23fe
2000
27ff
2401
25fd
2050
2020
23de
0000
0000
ENDCHAR
STARTCHAR ch-466
ENCODING 466
SWIDTH 1000 0
DWIDTH 16 0
BBX 16 16 0 -2
BITMAP
0080
3fff
2221
4ffa
0220
0ff8
0220
3ffe
0590
0848
1027
6302
00c0
0020
0000
0000
ENDCHAR
STARTCHAR ch-467
ENCODING 467
SWIDTH 1000 0
DWIDTH 16 0
BBX 16 16 0 -2
BITMAP
0080
7fff
4001
5ffd
1084
1ffc
1084
1ffc
0080
7fff
4089
4ff9
4001
4006
0000
0000
ENDCHAR
STARTCHAR ch-468
ENCODING 468
SWIDTH 1000 0
DWIDTH 16 0
BBX 16 16 0 -2
BITMAP
0080
7fff
4001
4ff9
0808
0ff8
0808
0ff8
0000
3ffe
0080
08fc
1480
63ff
0000
0000
ENDCHAR
STARTCHAR ch-470
ENCODING 470
SWIDTH 1000 0
DWIDTH 16 0
BBX 16 16 0 -2
BITMAP
0080
3fff
2001
40fc
19ff
0c04
20fc
3000
11ff
0501
087c
1028
7010
20ee
0000
0000
ENDCHAR
STARTCHAR ch-472
ENCODING 472
SWIDTH 1000 0
DWIDTH 16 0
BBX 16 16 0 -2
BITMAP
0080
7fff
4081
5ffd
0ff8
0808
0ff8
0ff8
0808
0ff8
0808
7fff
0808
1004
0000
0000
ENDCHAR
STARTCHAR ch-473
ENCODING 473
SWIDTH 1000 0
DWIDTH 16 0
BBX 16 16 0 -2
BITMAP
0080
0080
7fff
4001
4405
3839
2020
2a2a
2a2a
2a2a
2929
48a8
0a4a
1e9e
0000
0000
ENDCHAR
STARTCHAR ch-478
ENCODING 478
SWIDTH 1000 0
DWIDTH 16 0
BBX 16 16 0 -2
BITMAP
0080
7fff
4411
5f7d
0410
0ff8
0808
0ff8
0808
0ff8
0080
3ffe
0410
180c
0000
0000
ENDCHAR
STARTCHAR ch-479
ENCODING 479
SWIDTH 1000 0
DWIDTH 16 0
BBX 16 16 0 -2
BITMAP
0080
3fff
2401
477a
0948
1630
3410
0be8
1007
27f2
4080
088c
1084
0080
0000
0000
ENDCHAR
STARTCHAR ch-480
ENCODING 480
SWIDTH 1000 0
DWIDTH 16 0
BBX 16 16 0 -2
BITMAP
0080
7fff
4081
4ff9
3ffe
0ff8
0080
1ffc
1084
1ffc
0220
7fff
0080
1f7c
0000
0000
ENDCHAR
STARTCHAR ch-481
ENCODING 481
SWIDTH 1000 0
DWIDTH 16 0
BBX 16 16 0 -2
BITMAP
0080
3fff
4ffa
07f0
0490
0650
0510
3ffe
0220
07f0
192f
6122
0220
0c40
0000
0000
ENDCHAR
STARTCHAR ch-482
ENCODING 482
SWIDTH 1000 0
DWIDTH 16 0
BBX 16 16 0 -2
BITMAP
0080
7fff
4001
44fd
2404
25ff
3cfc
05fe
3d02
247c
2428
2410
2428
44c6
0000
0000
ENDCHAR
STARTCHAR ch-483
ENCODING 483
SWIDTH 1000 0
DWIDTH 16 0
BBX 16 16 0 -2
BITMAP
0080
7fff
4001
4411
24fe
2400
247c
3c00
047c
7c00
24fe
2482
4482
04fe
0000
0000
ENDCHAR
STARTCHAR ch-484
ENCODING 484
SWIDTH 1000 0
DWIDTH 16 0
BBX 16 16 0 -2
BITMAP
0080
3fff
2001
52fe
1220
12fc
1e24
0224
7fff
1200
12fe
1282
22fe
0282
0000
0000
ENDCHAR
STARTCHAR ch-485
ENCODING 485
SWIDTH 1000 0
DWIDTH 16 0
BBX 16 16 0 -2
BITMAP
0080
7fff
5f7d
4515
0b2c
1554
0924
03c0
0cb0
330c
0040
0780
0020
0fc0
0000
0000
ENDCHAR
STARTCHAR ch-486
ENCODING 486
SWIDTH 1000 0
DWIDTH 16 0
BBX 16 16 0 -2
BITMAP
0080
7fff
4001
4ff9
0888
7fff
0888
0ff8
1ffc
1004
1ff4
1ff4
1ffc
6003
0000
0000
ENDCHAR
STARTCHAR ch-487
ENCODING 487
SWIDTH 1000 0
DWIDTH 16 0
BBX 16 16 0 -2
BITMAP
0080
7fff
4101
4a91
1218
03f0
0ff8
0948
7fff
0000
3ffe
0080
0080
0380
0000
0000
ENDCHAR
STARTCHAR ch-488
ENCODING 488
SWIDTH 1000 0
DWIDTH 16 0
BBX 16 16 0 -2
BITMAP
0080
3fff
2221
5ffe
0220
0ff8
0220
7fff
0490
1ffc
62a3
0498
0888
0080
0000
0000
ENDCHAR
STARTCHAR ch-489
ENCODING 489
SWIDTH 1000 0
DWIDTH 16 0
BBX 16 16 0 -2
BITMAP
0080
7fff
4009
1ff0
0888
0490
7fff
0888
1084
3ffe
5085
1ffc
1084
1ffc
0000
0000
ENDCHAR
STARTCHAR ch-490
ENCODING 490
SWIDTH 1000 0
DWIDTH 16 0
BBX 16 16 0 -2
BITMAP
0100
0080
7fff
4421
4241
0ffc
0108
03fe
0404
0fff
1249
2925
4401
000e
0000
0000
ENDCHAR
STARTCHAR ch-491
ENCODING 491
SWIDTH 1000 0
DWIDTH 16 0
BBX 16 16 0 -2
BITMAP
0080
7fff
4401
183c
1004
1e3c
1004
1ffc
0400
0fff
1001
2551
0552
0004
0000
0000
ENDCHAR
STARTCHAR ch-492
ENCODING 492
SWIDTH 1000 0
DWIDTH 16 0
BBX 16 16 0 -2
BITMAP
0080
7fff
4221
5e3d
0220
0ff8
0808
0ff8
0808
0ff8
0808
0ff8
0425
383f
0000
0000
ENDCHAR
STARTCHAR ch-494
ENCODING 494
SWIDTH 1000 0
DWIDTH 16 0
BBX 16 16 0 -2
BITMAP
0082
3fff
2102
7fff
2222
1414
0ff8
180f
6ffa
0808
0ff8
088c
1284
0100
0000
0000
ENDCHAR
STARTCHAR ch-495
ENCODING 495
SWIDTH 1000 0
DWIDTH 16 0
BBX 16 16 0 -2
BITMAP
0080
7fff
4481
4ff9
1880
0ff8
0880
0ff8
0880
0ff8
0000
7e3f
43e1
4007
0000
0000
ENDCHAR
STARTCHAR ch-496
ENCODING 496
SWIDTH 1000 0
DWIDTH 16 0
BBX 16 16 0 -2
BITMAP
0080
3fff
2001
5ffe
1224
1ffc
7fff
0ff8
0808
0ff8
0244
0628
3a90
030e
0000
0000
ENDCHAR
STARTCHAR ch-497
ENCODING 497
SWIDTH 1000 0
DWIDTH 16 0
BBX 16 16 0 -2
BITMAP
0080
7fff
4021
427d
2244
227c
2244
3e7c
0244
7e7c
2210
22fe
2254
4292
0000
0000
ENDCHAR
STARTCHAR ch-498
ENCODING 498
SWIDTH 1000 0
DWIDTH 16 0
BBX 16 16 0 -2
BITMAP
0080
7fff
4001
60fd
3c28
2210
3eff
2009
3e08
484e
7f48
1468
2298
410f
0000
0000
ENDCHAR
STARTCHAR ch-501
ENCODING 501
SWIDTH 1000 0
DWIDTH 16 0
BBX 16 16 0 -2
BITMAP
0080
7fff
4841
3e7e
1440
7f7e
0002
3e7e
227e
3e40
227e
3e7e
2241
267f
0000
0000
ENDCHAR
STARTCHAR ch-502
ENCODING 502
SWIDTH 1000 0
DWIDTH 16 0
BBX 16 16 0 -2
BITMAP
0080
7fff
5f7d
0488
1f7f
042a
3fbe
0ff8
0808
0ff8
0fe8
0808
0ff8
1004
0000
0000
ENDCHAR
STARTCHAR ch-504
ENCODING 504
SWIDTH 1000 0
DWIDTH 16 0
BBX 16 16 0 -2
BITMAP
0020
0020
0020
0022
7fff
0020
0420
0220
0220
0020
0020
0020
00a0
0040
0000
0000
ENDCHAR
STARTCHAR ch-506
ENCODING 506
SWIDTH 1000 0
DWIDTH 16 0
BBX 16 16 0 -2
BITMAP
0080
0084
3ffe
0080
0088
1ffc
0010
3ffe
0410
0210
0210
0010
0050
0020
0000
0000
ENDCHAR
ENDFONT
